# xmcd
#
# Track frame offsets:
#	150
#	13435
#	25458
#	37250
#	52408
#	65615
#	82700
#	97170
#	112810
#	127120
#	143425
#	159698
#
# Disc length: 2254 seconds
#
# Revision: 3
# Processed by: cddbd v1.5.1PL2 Copyright (c) Steve Scherf et al.
# Submitted via: dBpowerAMP V4.0
#
DISCID=ad08cc0c
DTITLE=Marty Stuart - The Marty Party Hit Pack
DYEAR=1900
DGENRE=Country
TTITLE0=If I Ain't Got You
TTITLE1=The Whiskey Ain't Working
TTITLE2=Hillbilly Rock
TTITLE3=Now That's Country
TTITLE4=Burn Me Down
TTITLE5=The Likes Of Me
TTITLE6=Tempted
TTITLE7=This One's Gonna Hurt You (For A Long Long Time)
TTITLE8=Little Things
TTITLE9=The Weight
TTITLE10=Western Girls
TTITLE11=Don't Be Cruel (To A Heart That's True)
EXTD=
EXTT0=
EXTT1=
EXTT2=
EXTT3=
EXTT4=
EXTT5=
EXTT6=
EXTT7=
EXTT8=
EXTT9=
EXTT10=
EXTT11=
PLAYORDER=
